#!OML:ASF Y:\EmotionMaleHayes\Project 1\Capture day 1\Session 1\Male1.ASF
:FULLY-SPECIFIED
:DEGREES
459
root -23.259 16.7175 -13.3523 176.644 59.6358 176.354
lowerback 8.44099 1.1924 0.17242
upperback 3.08631 1.80539 2.51565
thorax -1.6129 0.957157 2.32279
lowerneck -18.2969 -8.39098 -4.10425
upperneck 29.5724 -12.1264 6.5246
head 13.7837 -4.52027 1.23158
rclavicle -5.08889e-014 -4.53229e-014
rhumerus -36.6702 6.55245 -82.7421
rradius 49.0534
rwrist -2.21824
rhand -10.2982 -26.2409
rfingers 7.12502
rthumb 15.6964 -55.6243
lclavicle -5.08889e-014 -4.53229e-014
lhumerus -35.7609 -3.80339 87.998
lradius 22.0792
lwrist -23.2377
lhand -6.77058 -26.0856
lfingers 7.12502
lthumb 19.0915 2.99739
rfemur -0.286407 -9.57379 29.5256
rtibia 9.2528
rfoot -16.376 2.91044
rtoes 28.3036
lfemur -8.0942 8.02304 -10.8707
ltibia 62.4174
lfoot -3.00378 2.21741
ltoes -9.15854
460
root -23.1475 16.7325 -13.4194 176.666 60.5528 176.358
lowerback 8.38412 1.32645 0.342169
upperback 3.06154 1.98697 2.36744
thorax -1.60371 1.04615 2.05707
lowerneck -18.3612 -8.42503 -3.92272
upperneck 29.7204 -12.2521 6.55193
head 13.8591 -4.53883 1.18858
rclavicle 3.04141e-014 -2.46493e-014
rhumerus -35.8619 7.11163 -82.784
rradius 49.7773
rwrist -2.07438
rhand -10.1856 -27.4874
rfingers 7.12502
rthumb 15.8049 -56.8622
lclavicle 3.04141e-014 -2.46493e-014
lhumerus -36.3196 -2.45799 86.9577
lradius 21.4444
lwrist -25.1656
lhand -6.65039 -25.925
lfingers 7.12502
lthumb 19.207 3.14651
rfemur 0.611131 -10.0232 29.3311
rtibia 8.70197
rfoot -16.021 4.34913
rtoes 30.1481
lfemur -9.34181 7.75831 -10.7918
ltibia 62.3944
lfoot -3.95476 2.4877
ltoes -8.12454
461
root -23.0415 16.7461 -13.4863 176.803 61.3915 176.522
lowerback 8.42545 1.46501 0.649778
upperback 2.97014 2.18756 2.21864
thorax -1.71095 1.14468 1.70824
lowerneck -18.1447 -8.5229 -3.74898
upperneck 29.8034 -12.4563 6.57671
head 13.8515 -4.60068 1.14242
rclavicle -5.36719e-015 -1.35174e-014
rhumerus -35.3308 7.54829 -82.7891
rradius 50.6837
rwrist -2.19571
rhand -10.0697 -27.7304
rfingers 7.12502
rthumb 15.9165 -57.0963
lclavicle -5.36719e-015 -1.35174e-014
lhumerus -36.9473 -0.990726 85.8107
lradius 20.8083
lwrist -27.1177
lhand -6.37894 -26.1382
lfingers 7.12502
lthumb 19.468 2.90716
rfemur 1.47559 -10.2602 29.2462
rtibia 8.23086
rfoot -15.8404 5.57129
rtoes 31.5644
lfemur -10.5523 7.30548 -10.6791
ltibia 62.1309
lfoot -5.20488 3.40681
ltoes -10.9385
462
root -22.9331 16.7549 -13.5495 176.997 62.246 176.789
lowerback 8.5041 1.65101 0.924383
upperback 2.85754 2.45289 2.14285
thorax -1.86302 1.27489 1.44519
lowerneck -17.8148 -8.64372 -3.65382
upperneck 29.9048 -12.6359 6.51265
head 13.823 -4.67503 1.08385
rclavicle 6.77856e-014 -2.62396e-014
rhumerus -34.9737 7.87826 -82.664
rradius 51.8126
rwrist -2.4078
rhand -8.92378 -28.4973
rfingers 7.12502
rthumb 17.0198 -57.7717
lclavicle 6.77856e-014 -2.62396e-014
lhumerus -37.7272 -0.0656232 84.9661
lradius 20.3058
lwrist -28.4192
lhand -5.95865 -26.4685
lfingers 7.12502
lthumb 19.8721 2.53558
rfemur 2.41678 -10.2294 29.261
rtibia 7.67384
rfoot -15.8882 6.52032
rtoes 31.6338
lfemur -11.5811 6.82137 -10.4696
ltibia 61.5277
lfoot -3.4661 1.49471
ltoes 8.12776
463
root -22.8247 16.7594 -13.6126 177.304 63.1534 177.109
lowerback 8.50835 1.78367 1.32677
upperback 2.78038 2.65473 2.00726
thorax -1.9246 1.37331 1.05811
lowerneck -17.6847 -8.68614 -3.69989
upperneck 30.0572 -12.7445 6.6978
head 13.8899 -4.69188 1.15093
rclavicle -1.82882e-014 -5.08889e-014
rhumerus -34.2901 8.39615 -82.6917
rradius 52.6197
rwrist -2.87034
rhand -7.05848 -29.8131
rfingers 7.12502
rthumb 18.8146 -58.9232
lclavicle -1.82882e-014 -5.08889e-014
lhumerus -38.4999 0.191434 84.3593
lradius 19.9802
lwrist -28.7765
lhand -5.67187 -26.2948
lfingers 7.12502
lthumb 20.1478 2.68046
rfemur 3.24478 -10.2686 29.2796
rtibia 7.21747
rfoot -16.0774 7.60077
rtoes 31.1399
lfemur -12.6558 6.3536 -10.2718
ltibia 60.9023
lfoot -6.91316 4.63311
ltoes -13.0529
464
root -22.7199 16.7628 -13.6792 177.447 64.1781 177.202
lowerback 8.50777 1.9548 1.52315
upperback 2.71294 2.89276 1.93544
thorax -1.98295 1.48941 0.849018
lowerneck -17.68 -8.71801 -3.77422
upperneck 30.263 -12.8197 6.83327
head 14.003 -4.69928 1.20448
rclavicle -2.04748e-014 -4.77083e-015
rhumerus -33.637 9.32277 -82.7472
rradius 53.3726
rwrist -4.17073
rhand -7.55532 -30.1156
rfingers 7.12502
rthumb 18.3367 -59.2714
lclavicle -2.04748e-014 -4.77083e-015
lhumerus -39.2032 0.683652 83.8353
lradius 19.6639
lwrist -29.0319
lhand -5.64688 -25.8371
lfingers 7.12502
lthumb 20.1718 3.13556
rfemur 3.90655 -10.6148 29.0469
rtibia 7.0281
rfoot -16.1668 9.17146
rtoes 30.9014
lfemur -13.8492 6.01882 -10.2174
ltibia 60.4212
lfoot -7.56968 4.73338
ltoes -11.6225
